# AST/ASF file generated using VICON BodyLanguage
# -----------------------------------------------
:version 1.10
:name VICON
:units
  mass 1.0
  length 0.45
  angle deg
:documentation
   .ast/.asf automatically generated from VICON data using
   VICON BodyBuilder and BodyLanguage model FoxedUp or BRILLIANT.MOD
:root
   order TX TY TZ RX RY RZ
   axis XYZ
   position 0 0 0  
   orientation 0 0 0 
:bonedata
  begin
     id 1 
     name lhipjoint
     direction 0.653368 -0.678499 0.335782 
     length 2.51848 
     axis 0 0 0  XYZ
  end
  begin
     id 2 
     name lfemur
     direction 0.34202 -0.939693 0  
     length 6.57749  
     axis 0 0 20  XYZ
    dof rx ry rz
    limits (-160.0 20.0)
           (-70.0 70.0)
           (-60.0 70.0)
  end
  begin
     id 3 
     name ltibia
     direction 0.34202 -0.939693 0   
     length 7.94618   
     axis 0 0 20   XYZ
    dof rx
    limits (-10.0 170.0)
  end
  begin
     id 4 
     name lfoot
     direction 0.0811271 -0.222895 0.971461   
     length 2.31339   
     axis -90 7.62852e-016 20   XYZ
    dof rx rz
    limits (-45.0 90.0)
           (-70.0 20.0)
  end
  begin
     id 5 
     name ltoes
     direction 1.53568e-011 -4.21885e-011 1   
     length 1.15935   
     axis -90 7.62852e-016 20   XYZ
    dof rx
    limits (-90.0 20.0)
  end
  begin
     id 6 
     name rhipjoint
     direction -0.640058 -0.688614 0.340788   
     length 2.48149  
     axis 0 0 0  XYZ 
  end
  begin
     id 7 
     name rfemur
     direction -0.34202 -0.939693 0   
     length 6.57875   
     axis 0 0 -20   XYZ
    dof rx ry rz
    limits (-160.0 20.0)
           (-70.0 70.0)
           (-70.0 60.0)
  end
  begin
     id 8 
     name rtibia
     direction -0.34202 -0.939693 0   
     length 7.977   
     axis 0 0 -20   XYZ
    dof rx
    limits (-10.0 170.0)
 end
 begin
     id 9 
     name rfoot
     direction -0.0979793 -0.269196 0.958089   
     length 2.19857  
     axis -90 -7.62852e-016 -20   XYZ
    dof rx rz
    limits (-45.0 90.0)
           (-20.0 70.0)
  end
  begin
     id 10 
     name rtoes
     direction -1.53556e-011 -4.21868e-011 1   
     length 1.09838   
     axis -90 -7.62852e-016 -20   XYZ
    dof rx
    limits (-90.0 20.0)
  end
  begin
     id 11 
     name lowerback
     direction 0.0149039 0.998517 -0.0523597   
     length 2.10809   
     axis 0 0 0   XYZ
    dof rx ry rz
    limits (-20.0 45.0)
           (-30.0 30.0)
           (-30.0 30.0)
  end
  begin
     id 12 
     name upperback
     direction -0.00882659 0.999418 -0.0329624   
     length 2.1102   
     axis 0 0 0   XYZ
    dof rx ry rz
    limits (-20.0 45.0)
           (-30.0 30.0)
           (-30.0 30.0)
  end
  begin
     id 13 
     name thorax
     direction -0.0165585 0.999826 -0.0085833   
     length 2.11039   
     axis 0 0 0   XYZ
    dof rx ry rz
    limits (-20.0 45.0)
           (-30.0 30.0)
           (-30.0 30.0)
  end
  begin
     id 14 
     name lowerneck
     direction -0.0130877 0.999911 0.00260353   
     length 1.73253   
     axis 0 0 0   XYZ
    dof rx ry rz
    limits (-20.0 45.0)
           (-30.0 30.0)
           (-30.0 30.0)
  end
  begin
     id 15 
     name upperneck
     direction -0.0348454 0.928205 -0.370435   
     length 1.66692   
     axis 0 0 0   XYZ
    dof rx ry rz
    limits (-20.0 45.0)
           (-30.0 30.0)
           (-30.0 30.0)
  end
  begin
     id 16
     name head
     direction -0.00807754 0.992494 -0.122026  
     length 1.72765  
     axis 0 0 0   XYZ
    dof rx ry rz
    limits (-20.0 45.0)
           (-30.0 30.0)
           (-30.0 30.0)
  end
  begin
     id 17 
     name lclavicle
     direction 0.987582 0.144023 0.0627671  
     length 3.49235  
     axis 0 0 0   XYZ
    dof ry rz
    limits (-20.0 10.0)
           (0.0 20.0)
  end
  begin
     id 18 
     name lhumerus
     direction 1 -4.48958e-011 -1.45183e-018   
     length 5.41917   
     axis 180 -30 -90   XYZ
    dof rx ry rz
    limits (-60.0 90.0)
           (-90.0 90.0)
           (-90.0 90.0)
  end
  begin
     id 19
     name lradius
     direction 1 -4.48999e-011 5.75106e-027   
     length 2.44373   
     axis 180 -30 -90   XYZ
    dof rx
    limits (-10.0 170.0)
  end
  begin
     id 20
     name lwrist
     direction 1 -4.48987e-011 1.53461e-026   
     length 1.22186   
     axis -1.09697e-014 90 90   XYZ
    dof ry
    limits (-180.0 0.0)
 end
  begin
     id 21 
     name lhand
     direction 1 -4.48881e-011 3.06923e-026   
     length 0.727502   
     axis -1.95843e-014 90 90   XYZ
    dof rx rz
    limits (-90.0 90.0)
           (-45.0 45.0)
  end
  begin
     id 22 
     name lfingers
     direction 1 -4.48907e-011 6.13845e-026   
     length 0.586531   
     axis -3.91686e-014 90 90   XYZ
    dof rx
    limits (0.0 90.0)
  end
  begin
     id 23
     name lthumb
     direction 0.707107 -6.3487e-011 0.707107   
     length 0.842145   
     axis -90 45 2.85299e-015   XYZ
    dof rx rz
    limits (-45.0 45.0)
           (-45.0 45.0)
  end
  begin
     id 24 
     name rclavicle
     direction -0.980998 0.169556 0.0943023   
     length 3.29272  
     axis 0 0 0   XYZ 
    dof ry rz
    limits (-10.0 20.0)
           (-20.0 0.0)
  end
  begin
     id 25 
     name rhumerus
     direction -1 -1.83355e-005 2.45537e-005  
     length 5.58976   
     axis 180 30 90   XYZ
    dof rx ry rz
    limits (-90.0 60.0)
           (-90.0 90.0)
           (-90.0 90.0)
  end
  begin
     id 26 
     name rradius
     direction -1 -4.48967e-011 5.97228e-027   
     length 2.4806   
     axis 180 30 90   XYZ
    dof rx
    limits (-10.0 170.0)
  end
  begin
     id 27 
     name rwrist
     direction -1 -4.48963e-011 1.53461e-026   
     length 1.2403   
     axis -1.09697e-014 -90 -90   XYZ
    dof ry
    limits (-180.0 0.0)
  end
  begin
     id 28
     name rhand
     direction -1 -4.48881e-011 3.06923e-026   
     length 0.816009   
     axis -1.95843e-014 -90 -90   XYZ
    dof rx rz
    limits (-90.0 90.0)
           (-45.0 45.0)
  end
  begin
     id 29
     name rfingers
     direction -1 -4.49018e-011 6.13845e-026   
     length 0.657887   
     axis -3.91686e-014 -90 -90   XYZ
    dof rx
    limits (0.0 90.0)
  end
  begin
     id 30
     name rthumb
     direction -0.707107 -6.34872e-011 0.707107   
     length 0.944599   
     axis -90 -45 -2.85299e-015   XYZ
    dof rx rz
    limits (-45.0 45.0)
           (-45.0 45.0)
  end
:hierarchy
  begin
    root lhipjoint rhipjoint lowerback
    lhipjoint lfemur
    lfemur ltibia
    ltibia lfoot
    lfoot ltoes
    rhipjoint rfemur
    rfemur rtibia
    rtibia rfoot
    rfoot rtoes
    lowerback upperback
    upperback thorax
    thorax lowerneck lclavicle rclavicle
    lowerneck upperneck
    upperneck head
    lclavicle lhumerus
    lhumerus lradius
    lradius lwrist
    lwrist lhand lthumb
    lhand lfingers
    rclavicle rhumerus
    rhumerus rradius
    rradius rwrist
    rwrist rhand rthumb
    rhand rfingers
  end

#!OML:ASF F:\VICON\USERDATA\INSTALL\rory3\rory3.ASF
:FULLY-SPECIFIED
:DEGREES
91
root -2.11321 15.6329 -24.4499 184.568 -59.9886 -154.129
lowerback -10.1002 0.430448 -2.6784
upperback -8.60304 0.17978 -0.101398
thorax -3.33644 -0.0310122 1.4227
lowerneck 4.19865 -18.7216 -17.3454
upperneck 25.5766 -28.6137 5.02694
head 10.8662 -14.9382 1.25889
rclavicle 4.6118e-014 1.59028e-015
rhumerus -40.179 7.2943 -50.3804
rradius 20.2001
rwrist 11.372
rhand 8.80727 13.2674
rfingers 7.12502
rthumb 33.9942 -13.5176
lclavicle 4.6118e-014 1.59028e-015
lhumerus -111.881 -68.4916 128.675
lradius 49.6663
lwrist 0.740678
lhand 30.2009 30.0252
lfingers 7.12502
lthumb 53.8875 48.939
rfemur -58.1885 30.7492 17.2073
rtibia 51.7866
rfoot -20.0282 4.20368
rtoes 3.97959
lfemur -46.0177 -35.0773 6.79043
ltibia 59.2647
lfoot -31.4996 10.4576
ltoes -39.8291
92
root -2.12363 15.6349 -24.3042 187.852 -56.4756 -156.651
lowerback -11.0102 0.310961 -3.34391
upperback -8.54799 0.0559727 -0.254477
thorax -2.78785 -0.0941727 1.62877
lowerneck 4.88978 -19.096 -17.7239
upperneck 24.6468 -29.1084 5.09653
head 10.5323 -15.2025 1.35379
rclavicle 1.61016e-014 1.74931e-014
rhumerus -39.8867 7.5934 -50.8334
rradius 20.5172
rwrist 11.0408
rhand 8.7592 13.9729
rfingers 7.12502
rthumb 33.9486 -12.8222
lclavicle 1.61016e-014 1.74931e-014
lhumerus -110.92 -67.6801 128.723
lradius 52.8086
lwrist 5.32588
lhand 31.3122 30.6731
lfingers 7.12502
lthumb 54.8826 48.8963
rfemur -60.1179 30.391 15.7543
rtibia 52.4106
rfoot -18.2715 8.75735
rtoes 17.3692
lfemur -45.6272 -35.3252 5.65006
ltibia 59.0519
lfoot -30.9072 13.0885
ltoes -38.2267
93
root -2.08035 15.5859 -24.2284 188.023 -52.7757 -155.917
lowerback -11.6271 0.180197 -3.66755
upperback -8.30869 -0.0675994 0.258826
thorax -2.19951 -0.145992 2.33298
lowerneck 4.42195 -19.6817 -18.0272
upperneck 25.0217 -29.7633 4.50743
head 10.7849 -15.5302 1.00055
rclavicle 1.2921e-014 2.06736e-014
rhumerus -39.4411 7.5089 -51.2541
rradius 20.7132
rwrist 10.5724
rhand 9.02979 14.5287
rfingers 7.12502
rthumb 34.2056 -12.2092
lclavicle 1.2921e-014 2.06736e-014
lhumerus -112.605 -67.8893 132.74
lradius 54.8435
lwrist 11.7875
lhand 32.0458 31.6124
lfingers 7.12502
lthumb 55.5362 49.356
rfemur -61.8502 31.3097 16.4464
rtibia 53.0113
rfoot -16.5663 10.456
rtoes 19.0212
lfemur -44.8951 -34.2435 6.17419
ltibia 59.0157
lfoot -30.7853 15.9062
ltoes -39.3953
94
root -2.02916 15.5044 -24.1522 188.919 -48.3541 -156.113
lowerback -12.3741 0.280918 -4.71445
upperback -7.8781 0.215626 0.599544
thorax -1.38435 0.0252206 3.30706
lowerneck 4.99456 -20.2341 -18.096
upperneck 23.4445 -30.4439 5.07209
head 10.2896 -15.7976 1.21028
rclavicle 1.70955e-014 3.18055e-015
rhumerus -38.8384 7.17435 -51.4448
rradius 20.9294
rwrist 8.99236
rhand 10.0614 14.5241
rfingers 7.12502
rthumb 35.1845 -11.9887
lclavicle 1.70955e-014 3.18055e-015
lhumerus -113.663 -68.4098 135.853
lradius 56.9436
lwrist 17.8473
lhand 32.5934 32.9424
lfingers 7.12502
lthumb 56.0222 50.3149
rfemur -63.5346 32.2886 16.8659
rtibia 53.5145
rfoot -14.4742 12.6802
rtoes 19.7277
lfemur -43.7208 -32.3686 5.58149
ltibia 59.1417
lfoot -31.194 19.3121
ltoes -41.0336
95
root -2.03353 15.4551 -23.98 190.527 -44.933 -157.132
lowerback -12.893 0.0674015 -4.70448
upperback -7.57246 -0.0422192 0.502594
thorax -0.758192 -0.1311 3.17132
lowerneck 5.47113 -20.5553 -18.0884
upperneck 21.9547 -30.7803 5.54361
head 9.78553 -15.9178 1.43165
rclavicle -4.7112e-014 5.725e-014
rhumerus -37.8411 7.14476 -51.5047
rradius 20.9362
rwrist 7.44348
rhand 11.15 14.4207
rfingers 7.12502
rthumb 36.2162 -11.8424
lclavicle -4.7112e-014 5.725e-014
lhumerus -112.889 -68.8784 137.012
lradius 59.4071
lwrist 23.4378
lhand 33.5635 33.4679
lfingers 7.12502
lthumb 56.879 50.1542
rfemur -64.6972 30.8304 17.2622
rtibia 53.9693
rfoot -11.6014 17.0528
rtoes 20.4198
lfemur -43.2745 -31.171 4.18041
ltibia 59.3101
lfoot -34.9759 17.0396
ltoes -42.7301
96
root -2.01707 15.4034 -23.8396 192.296 -40.9057 -158.26
lowerback -13.7279 -0.497991 -5.70555
upperback -7.41475 -0.67327 0.636648
thorax -0.0968564 -0.454424 3.79401
lowerneck 6.1339 -20.4684 -18.2331
upperneck 20.8108 -30.6749 5.93103
head 9.34218 -15.879 1.71926
rclavicle 5.74488e-014 6.67916e-014
rhumerus -36.5193 8.65754 -52.2332
rradius 20.8729
rwrist 5.38789
rhand 11.753 14.1773
rfingers 7.12502
rthumb 36.7871 -11.9419
lclavicle 5.74488e-014 6.67916e-014
lhumerus -109.419 -68.7828 135.026
lradius 61.7723
lwrist 28.1974
lhand 34.6011 33.8474
lfingers 7.12502
lthumb 57.7891 49.7566
rfemur -66.5658 30.4992 16.7663
rtibia 54.3963
rfoot -8.51102 20.7198
rtoes 17.6478
lfemur -42.7993 -29.1024 2.49082
ltibia 59.4906
lfoot -35.6372 16.8449
ltoes -38.5998
97
root -2.00953 15.3701 -23.6529 192.729 -37.9502 -158.24
lowerback -11.6903 -0.636526 -4.55651
upperback -9.04623 -1.34536 -0.00727065
thorax -2.87627 -0.839199 2.44756
lowerneck 9.21438 -19.8792 -17.5658
upperneck 20.6394 -30.3991 5.18362
head 8.53485 -15.9789 1.91285
rclavicle -5.36719e-015 -5.725e-014
rhumerus -38.7082 10.3942 -53.7824
rradius 21.093
rwrist 4.1193
rhand 12.5869 14.0541
rfingers 7.12502
rthumb 37.5756 -11.8594
lclavicle -5.36719e-015 -5.725e-014
lhumerus -113.799 -67.6919 139.848
lradius 63.6403
lwrist 32.8652
lhand 35.1543 35.2975
lfingers 7.12502
lthumb 58.2715 50.7728
rfemur -67.5404 29.1371 17.681
rtibia 54.7798
rfoot -5.19549 24.4666
rtoes 12.9423
lfemur -42.292 -27.2621 1.50333
ltibia 59.5983
lfoot -36.3782 17.7679
ltoes -39.0466
